<svg xmlns="http://www.w3.org/2000/svg" viewBox="0 0 374 100">

    <rect x="6" y="18" width="88" height="64" rx="14" fill="#111111"/>
    <line x1="6" y1="35" x2="94" y2="35" stroke="#ffffff" stroke-width="1.6" opacity="0.3"/>
    <g fill="#ffffff">
      <circle cx="16" cy="27" r="2.6"/><circle cx="25" cy="27" r="2.6"/><circle cx="34" cy="27" r="2.6"/>
    </g>
    <g fill="none" stroke="#ffffff" stroke-width="6" stroke-linecap="round" stroke-linejoin="round">
      <path d="M19 49 L29 58 L19 67"/><path d="M33 67 L45 67"/>
    </g>
    <path fill="#8b5cf6" fill-rule="evenodd"
          d="M52 37 L64 37 A16.5 16.5 0 0 1 64 70 L52 70 Z M60 45 L64 45 A8.5 8.5 0 0 1 64 62 L60 62 Z"/>
  <path d="M127.72 50.19Q127.72 52.41 127.17 54.23Q126.62 56.04 125.45 57.33Q124.29 58.61 122.47 59.30Q120.66 60 118.12 60L113.26 60L113.26 40.85L118.93 40.85Q121.13 40.85 122.77 41.40Q124.42 41.95 125.52 43.10Q126.62 44.24 127.17 46Q127.72 47.75 127.72 50.19M123.85 50.42Q123.85 48.87 123.60 47.65Q123.35 46.44 122.76 45.59Q122.17 44.75 121.17 44.31Q120.17 43.87 118.69 43.87L116.86 43.87L116.86 56.98L118.45 56.98Q121.10 56.98 122.47 55.40Q123.85 53.82 123.85 50.42 M146.43 60L142.45 60L141.39 56.22L134.71 56.22L133.63 60L130.05 60L135.72 40.85L140.76 40.85L146.43 60M140.58 53.28L138.09 44.37L135.58 53.28 M164.48 40.85L158.61 60L153.83 60L147.99 40.85L152.08 40.85L155.31 52.38L156.35 56.16L157.44 52.16L160.64 40.85 M172.40 43.80L168.18 43.80L168.18 40.85L180.28 40.85L180.28 43.80L176.06 43.80L176.06 57.03L180.28 57.03L180.28 60L168.18 60L168.18 57.03L172.40 57.03 M199.69 50.19Q199.69 52.41 199.15 54.23Q198.60 56.04 197.43 57.33Q196.27 58.61 194.45 59.30Q192.63 60 190.10 60L185.24 60L185.24 40.85L190.91 40.85Q193.10 40.85 194.75 41.40Q196.40 41.95 197.50 43.10Q198.60 44.24 199.15 46Q199.69 47.75 199.69 50.19M195.83 50.42Q195.83 48.87 195.58 47.65Q195.33 46.44 194.74 45.59Q194.14 44.75 193.15 44.31Q192.15 43.87 190.67 43.87L188.84 43.87L188.84 56.98L190.42 56.98Q193.07 56.98 194.45 55.40Q195.83 53.82 195.83 50.42  M234.91 54.21Q234.91 55.78 234.33 56.94Q233.75 58.10 232.71 58.85Q231.67 59.60 230.23 59.97Q228.80 60.34 227.10 60.34Q225.59 60.34 224.18 60.16Q222.78 59.99 221.40 59.58L221.40 56.02Q222.07 56.25 222.81 56.46Q223.54 56.66 224.28 56.81Q225.02 56.97 225.75 57.06Q226.48 57.14 227.17 57.14Q228.20 57.14 228.92 56.97Q229.63 56.79 230.09 56.48Q230.54 56.18 230.75 55.75Q230.95 55.33 230.95 54.81Q230.95 54.11 230.55 53.64Q230.15 53.16 229.49 52.79Q228.83 52.43 227.98 52.13Q227.14 51.84 226.27 51.50Q225.40 51.17 224.56 50.74Q223.71 50.32 223.06 49.69Q222.40 49.06 221.99 48.19Q221.59 47.31 221.59 46.08Q221.59 44.96 222 43.95Q222.41 42.93 223.29 42.18Q224.17 41.43 225.55 40.98Q226.92 40.53 228.87 40.53Q229.44 40.53 230.06 40.58Q230.69 40.63 231.30 40.72Q231.90 40.80 232.47 40.91Q233.03 41.02 233.50 41.13L233.50 44.43Q233.03 44.25 232.47 44.11Q231.92 43.96 231.32 43.85Q230.73 43.74 230.13 43.68Q229.53 43.62 228.99 43.62Q228.04 43.62 227.38 43.78Q226.72 43.93 226.29 44.20Q225.87 44.47 225.68 44.87Q225.49 45.26 225.49 45.75Q225.49 46.35 225.89 46.78Q226.29 47.21 226.96 47.56Q227.63 47.90 228.47 48.20Q229.31 48.50 230.20 48.85Q231.08 49.19 231.93 49.63Q232.77 50.07 233.43 50.70Q234.10 51.33 234.50 52.19Q234.91 53.04 234.91 54.21 M252.18 60L240.65 60L240.65 40.85L252.18 40.85L252.18 43.90L244.32 43.90L244.32 48.66L251.82 48.66L251.82 51.64L244.32 51.64L244.32 56.95L252.18 56.95 M271.73 60L267.50 60L264.80 53.85Q264.42 52.97 263.74 52.52Q263.06 52.08 262.13 52.08L261.45 52.08L261.45 60L257.84 60L257.84 40.85L263.42 40.85Q265.01 40.85 266.29 41.13Q267.58 41.40 268.49 42.03Q269.40 42.66 269.89 43.67Q270.38 44.68 270.38 46.14Q270.38 47.20 270.07 48.02Q269.77 48.84 269.21 49.43Q268.65 50.02 267.88 50.39Q267.12 50.76 266.21 50.90Q266.91 51.05 267.50 51.70Q268.08 52.35 268.67 53.58L271.73 60M266.60 46.49Q266.60 45.09 265.71 44.47Q264.82 43.86 263.03 43.86L261.45 43.86L261.45 49.26L262.91 49.26Q263.75 49.26 264.43 49.09Q265.11 48.91 265.59 48.56Q266.08 48.21 266.34 47.69Q266.60 47.17 266.60 46.49 M290.44 40.85L284.57 60L279.79 60L273.95 40.85L278.03 40.85L281.27 52.38L282.31 56.16L283.40 52.16L286.60 40.85 M298.36 43.80L294.14 43.80L294.14 40.85L306.24 40.85L306.24 43.80L302.02 43.80L302.02 57.03L306.24 57.03L306.24 60L294.14 60L294.14 57.03L298.36 57.03 M324.64 55.88L324.64 59.25Q323.37 59.77 322.17 60.01Q320.98 60.26 319.69 60.26Q317.63 60.26 316.04 59.66Q314.45 59.05 313.36 57.85Q312.26 56.65 311.70 54.87Q311.14 53.09 311.14 50.73Q311.14 48.31 311.75 46.43Q312.37 44.55 313.51 43.25Q314.65 41.95 316.29 41.27Q317.92 40.59 319.96 40.59Q320.61 40.59 321.19 40.62Q321.77 40.65 322.33 40.73Q322.88 40.81 323.46 40.94Q324.03 41.07 324.64 41.28L324.64 44.85Q323.40 44.27 322.27 44.02Q321.14 43.77 320.22 43.77Q318.86 43.77 317.89 44.26Q316.92 44.75 316.30 45.64Q315.68 46.52 315.38 47.75Q315.09 48.97 315.09 50.43Q315.09 51.99 315.39 53.21Q315.69 54.43 316.32 55.28Q316.95 56.13 317.93 56.58Q318.92 57.03 320.26 57.03Q320.75 57.03 321.31 56.93Q321.87 56.84 322.45 56.68Q323.03 56.53 323.60 56.32Q324.16 56.10 324.64 55.88 M342.15 60L330.63 60L330.63 40.85L342.15 40.85L342.15 43.90L334.29 43.90L334.29 48.66L341.79 48.66L341.79 51.64L334.29 51.64L334.29 56.95L342.15 56.95 M360.87 54.21Q360.87 55.78 360.29 56.94Q359.71 58.10 358.67 58.85Q357.63 59.60 356.19 59.97Q354.76 60.34 353.06 60.34Q351.55 60.34 350.14 60.16Q348.74 59.99 347.36 59.58L347.36 56.02Q348.03 56.25 348.77 56.46Q349.50 56.66 350.24 56.81Q350.98 56.97 351.71 57.06Q352.44 57.14 353.13 57.14Q354.16 57.14 354.87 56.97Q355.59 56.79 356.05 56.48Q356.50 56.18 356.71 55.75Q356.91 55.33 356.91 54.81Q356.91 54.11 356.51 53.64Q356.10 53.16 355.45 52.79Q354.79 52.43 353.94 52.13Q353.10 51.84 352.23 51.50Q351.36 51.17 350.52 50.74Q349.67 50.32 349.01 49.69Q348.36 49.06 347.95 48.19Q347.55 47.31 347.55 46.08Q347.55 44.96 347.96 43.95Q348.37 42.93 349.25 42.18Q350.13 41.43 351.50 40.98Q352.88 40.53 354.83 40.53Q355.40 40.53 356.02 40.58Q356.65 40.63 357.25 40.72Q357.86 40.80 358.43 40.91Q358.99 41.02 359.46 41.13L359.46 44.43Q358.99 44.25 358.43 44.11Q357.88 43.96 357.28 43.85Q356.69 43.74 356.09 43.68Q355.49 43.62 354.95 43.62Q354 43.62 353.34 43.78Q352.68 43.93 352.25 44.20Q351.83 44.47 351.64 44.87Q351.45 45.26 351.45 45.75Q351.45 46.35 351.85 46.78Q352.25 47.21 352.92 47.56Q353.58 47.90 354.43 48.20Q355.27 48.50 356.16 48.85Q357.04 49.19 357.88 49.63Q358.73 50.07 359.39 50.70Q360.06 51.33 360.46 52.19Q360.87 53.04 360.87 54.21" fill="#111111"/>
</svg>
