<?xml version="1.0" encoding="UTF-8" standalone="no"?>
<!-- Created with Inkscape (http://www.inkscape.org/) -->

<svg
   width="124.88333mm"
   height="124.88333mm"
   viewBox="0 0 124.88333 124.88333"
   version="1.1"
   id="svg1"
   xml:space="preserve"
   inkscape:version="1.3.2 (091e20e, 2023-11-25, custom)"
   sodipodi:docname="default-logo-no-text.svg"
   xmlns:inkscape="http://www.inkscape.org/namespaces/inkscape"
   xmlns:sodipodi="http://sodipodi.sourceforge.net/DTD/sodipodi-0.dtd"
   xmlns="http://www.w3.org/2000/svg"
   xmlns:svg="http://www.w3.org/2000/svg"><sodipodi:namedview
     id="namedview1"
     pagecolor="#ffffff"
     bordercolor="#000000"
     borderopacity="0.25"
     inkscape:showpageshadow="2"
     inkscape:pageopacity="0.0"
     inkscape:pagecheckerboard="0"
     inkscape:deskcolor="#d1d1d1"
     inkscape:document-units="mm"
     inkscape:zoom="2"
     inkscape:cx="-238.25"
     inkscape:cy="216"
     inkscape:window-width="4300"
     inkscape:window-height="1712"
     inkscape:window-x="-8"
     inkscape:window-y="2692"
     inkscape:window-maximized="1"
     inkscape:current-layer="layer1" /><defs
     id="defs1"><clipPath
       id="clip0_32_748"><rect
         width="160"
         height="160"
         fill="white"
         transform="translate(134)"
         id="rect3" /></clipPath></defs><g
     inkscape:label="Calque 1"
     inkscape:groupmode="layer"
     id="layer1" /><g
     style="fill:none"
     id="g2"
     transform="matrix(0.26458333,0,0,0.26458333,5.7329034,21.308318)"><g
       clip-path="url(#clip0_32_748)"
       id="g1"
       transform="matrix(2.3072304,0,0,2.3072304,-279.2673,-29.559883)"><path
         fill-rule="evenodd"
         clip-rule="evenodd"
         d="m 149.88,27.2 c -8.836,0 -16,7.1634 -16,16 v 74 c 0,8.836 7.164,16 16,16 h 56.729 l -3.211,-3.002 c -4.268,-3.99 -4.503,-4.144 -6.206,-4.13 -2.48,0.022 -3.8,-1.183 -3.8,-3.471 0,-1.875 0.91,-3.055 2.679,-3.475 2.416,-0.572 5.092,1.818 4.606,4.114 -0.193,0.914 0.253,1.496 3.467,4.518 l 3.689,3.469 v -3.699 -3.699 l -6.916,-6.524 c -6.477,-6.112 -7.013,-6.525 -8.458,-6.525 -3.632,0 -4.947,-4.458 -1.841,-6.247 0.927,-0.534 1.69,-0.774 2.401,-0.709 0.711,0.065 1.372,0.435 2.097,1.12 1.087,1.029 1.224,1.389 1.057,2.826 l -0.193,1.646 7,6.67 6.999,6.669 0.062,9.601 0.006,0.848 h 5.214 v -1.843 l -1.238,-1.092 c -1.769,-1.561 -1.756,-3.807 0.031,-5.228 0.698,-0.555 1.635,-1.008 2.083,-1.008 h 0.001 c 2.086,0 4.075,1.929 4.075,3.954 0,0.44 -0.65,1.414 -1.445,2.165 l -1.444,1.364 v 1.688 h 7.084 c -0.592,-1.294 -0.409,-2.895 0.891,-3.951 0.731,-0.594 1.563,-0.866 2.38,-0.885 2.45,-0.06 4.756,2.138 3.733,4.638 -0.027,0.066 -0.047,0.13 -0.059,0.198 h 3.308 l -1.675,-1.572 0.01,-2.631 0.005,-2.631 h -5.237 -5.238 l -8.345,-7.849 c -7.019,-6.602 -8.492,-7.813 -9.268,-7.621 -1.201,0.296 -3.493,-0.618 -4.061,-1.621 -0.884,-1.56 -0.544,-3.42 0.823,-4.507 1.455,-1.156 2.399,-1.253 4.103,-0.42 1.533,0.749 2.146,1.837 1.991,3.535 -0.117,1.274 0.288,1.733 7.703,8.744 l 7.825,7.401 h 4.853 4.852 v -2.729 -2.728 h -3.412 -3.413 l -3.704,-3.522 c -3.131,-2.977 -3.859,-3.487 -4.697,-3.291 -2.039,0.476 -4.579,-1.474 -4.579,-3.516 0,-1.171 1.198,-2.813 2.393,-3.281 2.606,-1.02 5.266,0.833 5.166,3.597 -0.056,1.547 0.118,1.803 3.299,4.848 l 3.359,3.216 h 2.794 2.794 v -2.246 -2.247 l -5.782,-5.452 -5.783,-5.451 -1.299,-1.025 -0.967,-0.8279 c 0,0 0.677,-3.4658 1.354,-3.009 0.677,0.4568 2.612,2.1927 2.612,2.1927 l 0.722,0.648 6.222,5.8872 6.222,5.887 v 9.555 9.554 l 3.095,2.905 0.221,0.207 h 2.874 l 0.002,-13.859 0.003,-16.556 -3.742,-3.4119 c -3.179,-2.8981 -3.895,-3.3757 -4.756,-3.1715 -2.061,0.4887 -4.711,-1.4872 -4.711,-3.5133 0,-1.8281 2.096,-3.7402 4.099,-3.7402 v 6e-4 c 0.462,0 1.445,0.5118 2.186,1.1373 1.17,0.9873 1.339,1.3658 1.279,2.8656 -0.068,1.6907 0.014,1.8068 3.816,5.3836 l 3.886,3.6548 v 17.94 13.27 h 6.154 l -0.053,-5.632 -0.119,-12.7 -1.341,-1.237 c -1.428,-1.317 -1.704,-2.652 -0.861,-4.148 0.731,-1.297 1.641,-1.799 3.281,-1.814 2.286,-0.019 3.666,1.207 3.666,3.256 0,1.6 -1.088,3.358 -2.079,3.358 -0.246,0 -0.397,4.722 -0.397,12.382 v 6.535 h 5.777 v -1.818 -5.934 l -1.241,-1.002 c -1.62,-1.31 -1.929,-2.963 -0.858,-4.587 1.554,-2.356 5.305,-2.14 6.415,0.369 0.756,1.709 0.362,3.289 -1.068,4.288 -1.11,0.775 -1.185,1.002 -1.185,3.572 v 2.744 l 3.713,-3.491 3.714,-3.492 v -4.484 -4.484 l -14.25,-13.259 -14.249,-13.2587 0.015,-7.8632 0.015,-7.8625 -1.237,-1.1693 c -0.952,-0.8995 -1.235,-1.514 -1.225,-2.6614 0.02,-2.2505 1.649,-3.4802 3.367,-3.591 h -10e-4 c 1.718,-0.1108 3.524,0.8977 3.899,3.1228 0.208,1.2318 0.047,1.6124 -1.252,2.9705 l -1.489,1.5576 v 7.1507 7.1506 l 14.441,13.6629 14.442,13.662 v 5.065 5.067 l -4.951,4.665 c -1.827,1.72 -3.105,2.949 -3.909,3.91 h 4.121 c 0.167,-0.445 0.453,-0.892 0.858,-1.347 1.384,-1.553 3.284,-1.624 5.089,-0.19 0.595,0.473 0.99,0.993 1.186,1.537 h 3.786 c -0.041,-1.775 -0.247,-2.07 -1.228,-2.935 -2.555,-2.255 -1.006,-6.024 2.476,-6.024 l 0.002,-0.001 c 3.473,0 4.971,3.607 2.475,5.964 -0.945,0.894 -1.17,1.194 -1.222,2.94 3.866,-0.324 7.341,-2.022 9.935,-4.603 -7.297,-6.949 -7.476,-7.378 -7.476,-8.61 0,-1.534 -0.276,-1.819 -17.536,-18.121 L 246.619,85.2479 V 74.976 64.7041 l -1.238,-1.0916 c -2.024,-1.7864 -1.609,-4.4633 0.882,-5.6799 3.878,-1.8947 7.197,2.7851 4.07,5.7392 l -1.238,1.1694 v 9.8136 9.8144 l 16.298,15.3923 16.298,15.3925 v -1.556 c 0,-1.522 -0.288,-1.826 -13.72,-14.5187 L 254.252,86.2148 v -5.9867 -5.9867 l -1.341,-1.1838 c -2.073,-1.8298 -1.527,-4.896 1.052,-5.9052 3.94,-1.5416 6.945,3.2654 3.796,6.0727 l -1.237,1.1031 v 5.4606 5.4607 l 12.277,11.5935 c 6.753,6.376 12.416,11.593 12.585,11.593 0.168,0 0.306,-1.272 0.306,-2.828 v -2.83 l -9.696,-9.1529 -9.696,-9.1536 V 76.274 68.0773 l -1.388,-0.7064 c -1.949,-0.9917 -3.31,-3.4034 -3.031,-5.3708 0.77,-5.421 8.009,-6.8604 11.022,-2.1918 1.569,2.4301 0.645,5.9681 -1.933,7.405 l -1.369,0.7635 v 7.4781 7.478 l 2.18,2.0325 c 1.199,1.1181 2.313,2.0334 2.476,2.0334 0.163,0 0.296,-2.5399 0.296,-5.6434 0,-5.5254 -0.021,-5.6547 -0.99,-6.2546 -2.327,-1.4404 -2.385,-4.7463 -0.106,-6.059 1.556,-0.8955 2.407,-0.9382 3.924,-0.1969 1.201,0.5865 2.123,2.0636 2.123,3.3999 0,0.4401 -0.65,1.4139 -1.444,2.1643 l -1.444,1.3642 v 6.8979 6.8979 l 1.65,1.5226 1.651,1.5218 V 79.9458 67.2782 l -1.651,-1.5218 c -1.473,-1.3592 -1.65,-1.7233 -1.65,-3.3976 0,-1.6041 -0.185,-2.0316 -1.276,-2.953 -1.851,-1.5608 -1.867,-3.6551 -0.041,-5.1964 1.556,-1.3136 2.677,-1.4034 4.491,-0.3587 2.215,1.276 2.246,4.3227 0.059,5.7887 -0.534,0.3579 -0.76,1.001 -0.76,2.1621 0,1.4147 0.238,1.8722 1.651,3.1753 l 1.65,1.5218 v 14.2618 14.261 l 1.857,1.722 1.856,1.7213 V 85.3007 72.1374 l -1.207,-0.96 c -1.538,-1.2229 -1.938,-2.847 -1.084,-4.407 1.493,-2.726 5.154,-2.726 6.646,0 0.854,1.56 0.455,3.1841 -1.083,4.407 l -1.208,0.96 v 14.2282 c 0,9.0656 0.149,14.3164 0.412,14.4704 0.257,0.15 0.413,3.805 0.413,9.674 v 9.433 l 6.318,5.961 c 0.808,-1.245 1.449,-2.609 1.888,-4.061 l -4.492,-4.237 v -11.65 -11.6518 l -1.445,-1.5103 c -1.85,-1.935 -1.921,-3.4548 -0.237,-5.0458 2.479,-2.3422 6.177,-0.8498 6.208,2.5046 0.011,1.1734 -0.257,1.7386 -1.225,2.5929 l -1.238,1.0917 v 11.2607 11.261 l 1.857,1.722 1.129,1.047 c 0.084,-0.664 0.127,-1.341 0.127,-2.028 v -13.179 l -0.721,-0.608 c -2.241,-1.892 -1.369,-4.7221 0.721,-5.7112 V 86.6277 l -5.589,-5.2705 v -8.5864 -8.5865 l -4.745,-4.4695 -4.745,-4.4702 v -6.5599 -6.5599 l -1.184,-0.9417 c -1.386,-1.1014 -1.884,-2.8863 -1.201,-4.302 0.497,-1.0297 2.248,-2.1118 3.417,-2.1118 h 0.002 c 1.177,0 2.922,1.0852 3.427,2.1323 0.795,1.6484 0.583,2.5376 -0.952,3.9868 l -1.444,1.3643 v 5.9136 5.9128 l 3.714,3.492 3.713,3.4912 v -4.0995 -4.0987 l -1.821,-1.4388 c -2.965,-2.3413 -3.471,-5.5435 -1.265,-8.0193 2.318,-2.6021 6.244,-2.6171 8.672,-0.4158 C 293.767,34.2503 286.647,27.2 277.88,27.2 Z m 144,23.7045 c -0.303,0.2897 -0.641,0.5418 -1.009,0.7446 l -1.277,0.7042 v 13.767 c 0,11.9385 0.085,13.8338 0.638,14.267 0.447,0.3505 0.765,0.3025 1.648,-0.4512 z M 270.289,133.2 c -0.323,-0.33 -0.711,-0.596 -0.977,-0.596 h 0.003 c -0.191,0 -0.632,0.266 -0.985,0.596 z m -41.876,0 c 0.127,-0.071 0.255,-0.166 0.38,-0.285 0.689,-0.651 0.619,-1.679 -0.158,-2.288 -0.241,-0.189 -0.494,-0.274 -0.738,-0.278 -1.057,-0.022 -1.955,1.457 -1.068,2.468 0.146,0.165 0.297,0.293 0.451,0.383 z m 52.131,-96.0456 c -0.286,-0.1435 -0.566,-0.1965 -0.825,-0.182 -1.121,0.0704 -1.836,1.4502 -0.835,2.3957 0.562,0.531 0.82,0.5657 1.741,0.2316 0.883,-0.3202 0.828,-1.9861 -0.081,-2.4453 z m 11.291,11.0651 c 1.227,-1.7689 -0.139,-3.7285 -2.144,-3.6442 -0.286,0.012 -0.586,0.0653 -0.893,0.1674 -2.66,0.8837 -1.908,4.4482 0.938,4.4482 1.064,0 1.596,-0.2462 2.099,-0.9714 z m -18.053,7.2824 c -0.205,-0.0241 -0.379,-0.0289 -0.531,-0.0145 -0.454,0.0411 -0.69,0.2568 -0.844,0.7156 -0.351,1.047 0.491,2.0252 1.614,1.8735 0.654,-0.0884 0.861,-0.3963 0.861,-1.285 0,-0.9767 -0.182,-1.1894 -1.1,-1.2896 z m -24.71,4.7727 c -0.287,-0.3273 -0.634,-0.493 -0.979,-0.5314 -1.037,-0.1189 -2.061,0.8876 -1.426,2.0082 0.531,0.937 1.881,0.8744 2.441,-0.1126 0.338,-0.5971 0.329,-0.9488 -0.036,-1.3642 z m 16.768,3.5353 c 1.227,-1.769 -0.138,-3.7278 -2.143,-3.6436 -0.287,0.0121 -0.586,0.0654 -0.893,0.1675 -2.66,0.8837 -1.908,4.4482 0.938,4.4482 1.064,0 1.595,-0.247 2.098,-0.9721 z m 18.085,5.5259 c 1.157,-0.7992 0.679,-2.0204 -0.791,-2.0204 -1.363,0 -1.874,0.989 -1.015,1.967 0.612,0.697 0.863,0.7047 1.806,0.0534 z m -42.274,0.3367 c 0.859,-0.978 0.349,-1.9672 -1.015,-1.9672 -0.853,0 -1.271,0.2132 -1.37,0.7004 -0.164,0.8036 0.606,1.8331 1.37,1.8331 0.285,0 0.741,-0.2549 1.015,-0.5663 z m 15.007,0.2415 c -0.276,-0.4132 -0.72,-0.6218 -1.164,-0.6265 -0.444,-0.0039 -0.887,0.1978 -1.16,0.606 -0.985,1.4751 1.025,2.6426 2.215,1.2873 0.394,-0.448 0.424,-0.7955 0.109,-1.2668 z m 15.983,2.8259 c 0.734,-0.8358 -0.004,-1.9162 -1.311,-1.9162 -0.726,0 -1.023,0.2457 -1.126,0.9303 -0.22,1.4725 1.425,2.1381 2.437,0.9859 z m 17.891,18.4197 c 1.023,-0.7068 0.518,-2.2115 -0.742,-2.2115 -0.897,0 -1.911,0.6475 -1.911,1.2196 0,0.3702 1.208,1.5088 1.601,1.5088 0.167,0 0.64,-0.2324 1.052,-0.5169 z m -56.724,0.3167 c -0.126,-0.038 -0.252,-0.0572 -0.376,-0.0668 -0.871,-0.053 -1.667,0.5942 -1.667,1.4523 0,0.9414 1.019,1.3583 2.235,0.9174 0.963,-0.3492 0.825,-1.9977 -0.192,-2.3029 z m -40.02,16.7847 c 0.742,-0.844 0.137,-2.162 -0.992,-2.162 -1.361,0 -2.058,0.905 -1.481,1.924 0.529,0.935 1.757,1.053 2.473,0.238 z m 10.263,-2.087 c -0.204,-0.024 -0.379,-0.029 -0.531,-0.015 -0.453,0.041 -0.689,0.257 -0.843,0.716 -0.352,1.047 0.491,2.025 1.613,1.873 0.655,-0.088 0.862,-0.396 0.862,-1.285 0,-0.977 -0.182,-1.189 -1.101,-1.289 z m 14.126,2.816 c 0.733,-0.835 -0.005,-1.917 -1.306,-1.917 -1.01,0 -1.479,0.89 -1.04,1.972 0.304,0.748 1.668,0.716 2.346,-0.055 z m 34.659,2.728 c 0.733,-0.834 -0.005,-1.916 -1.306,-1.916 -1.01,0 -1.479,0.889 -1.04,1.971 0.304,0.748 1.668,0.716 2.346,-0.055 z m 7.794,10.965 c 0.859,-0.978 0.349,-1.968 -1.014,-1.968 -0.853,0 -1.271,0.214 -1.37,0.701 -0.164,0.803 0.605,1.833 1.37,1.833 0.284,0 0.74,-0.255 1.014,-0.566 z m -62.716,0.779 c 0.859,-0.978 0.349,-1.967 -1.015,-1.967 -0.852,0 -1.27,0.213 -1.37,0.7 -0.163,0.804 0.606,1.834 1.37,1.834 0.285,0 0.741,-0.255 1.015,-0.567 z m 81.245,4.961 c 0.659,-1.112 -0.372,-2.136 -1.414,-2.025 -0.348,0.037 -0.697,0.201 -0.985,0.529 -0.364,0.415 -0.374,0.767 -0.036,1.364 0.555,0.978 1.891,1.051 2.435,0.132 z m -61.629,-0.692 c 0,-1.038 -0.138,-1.169 -1.232,-1.169 -0.861,0 -1.276,0.212 -1.377,0.705 -0.257,1.264 0.266,1.888 1.472,1.757 0.959,-0.104 1.137,-0.306 1.137,-1.293 z"
         fill="#ffffff"
         id="path1" /></g></g></svg>
