<?xml version="1.0" encoding="UTF-8"?>
<svg xmlns="http://www.w3.org/2000/svg" xmlns:xlink="http://www.w3.org/1999/xlink" width="4714" height="3361" viewBox="0 0 4714 3361">

<path fill-rule="evenodd" fill="rgb(48.631287%, 76.951599%, 3.140259%)" fill-opacity="1" d="M 1330.238281 1911.75 C 1330.238281 1911.75 1815.230469 1888.859375 2043.589844 1945.710938 C 2271.949219 2002.550781 2422.320312 2052.148438 2422.320312 2052.148438 C 2422.320312 2052.148438 2645.261719 1892.769531 3037.019531 1911.441406 C 3428.769531 1930.121094 3428.71875 1922.328125 3428.71875 1922.328125 L 3279.261719 1171.308594 L 4223.898438 987.359375 C 4223.898438 987.359375 4271.550781 975.339844 4264.410156 928.621094 C 4257.261719 881.910156 4152.878906 862.191406 4152.878906 862.191406 L 2485.808594 550.480469 C 2485.808594 550.480469 2397.960938 525.769531 2270.558594 556.871094 C 2143.148438 587.96875 522.265625 888.691406 522.265625 888.691406 C 522.265625 888.691406 410.582031 938.191406 462.578125 989.941406 C 514.570312 1041.699219 1116.78125 1134.398438 1116.78125 1134.398438 L 1113.441406 1351.671875 C 1113.441406 1351.671875 1071.71875 1375.339844 1068.511719 1405.078125 C 1065.308594 1434.808594 1065.929688 1453.320312 1065.929688 1453.320312 C 1065.929688 1453.320312 1023.441406 1506.21875 1031.660156 1566.570312 C 1039.871094 1626.910156 1056.691406 1663.808594 1056.691406 1663.808594 L 1050.800781 2764.6875 C 1050.800781 2764.6875 1058 2818.21875 1147.628906 2819.535156 C 1237.269531 2820.855469 1264.171875 2768.058594 1264.171875 2768.058594 L 1234.109375 1679.128906 C 1234.109375 1679.128906 1275.039062 1611.140625 1260.441406 1544.5 C 1245.851562 1477.871094 1224.761719 1457.078125 1224.761719 1457.078125 C 1224.761719 1457.078125 1221.890625 1394.75 1207.140625 1375.859375 C 1192.398438 1356.96875 1180.691406 1355.101562 1180.691406 1355.101562 L 1185.570312 1147.558594 L 1433.378906 1200.371094 L 1330.238281 1911.75 "/>
<path fill-rule="evenodd" fill="rgb(29.417419%, 67.771912%, 13.719177%)" fill-opacity="1" d="M 3283.691406 1193.570312 L 3279.261719 1171.308594 L 3904 1049.648438 C 4044.398438 1016.699219 4166.871094 987.730469 4255.570312 966.679688 C 4256.890625 964.96875 4258.121094 963.140625 4259.230469 961.179688 C 3816.21875 1052.53125 2511.75 1321.128906 2424.601562 1334.671875 C 2319.5 1351 637.835938 1043.289062 524.257812 962.25 C 500.140625 945.050781 513.636719 917.019531 549.945312 883.558594 L 522.265625 888.691406 C 522.265625 888.691406 410.582031 938.191406 462.578125 989.941406 C 514.570312 1041.699219 1116.78125 1134.398438 1116.78125 1134.398438 L 1116.601562 1146.269531 C 1138.199219 1151.089844 1161.191406 1156.199219 1185.238281 1161.53125 L 1185.570312 1147.558594 L 1433.378906 1200.371094 L 1431.199219 1215.460938 C 1805.910156 1296.628906 2262.5 1390.640625 2354.828125 1387.769531 C 2427.089844 1385.519531 2844.300781 1294.058594 3283.691406 1193.570312 "/>
<path fill-rule="evenodd" fill="rgb(97.65625%, 70.896912%, 10.984802%)" fill-opacity="1" d="M 1116.78125 1134.398438 L 1113.441406 1351.671875 C 1113.441406 1351.671875 1071.71875 1375.339844 1068.511719 1405.078125 C 1065.308594 1434.808594 1065.929688 1453.320312 1065.929688 1453.320312 C 1065.929688 1453.320312 1023.441406 1506.21875 1031.660156 1566.570312 C 1039.871094 1626.910156 1056.691406 1663.808594 1056.691406 1663.808594 L 1050.800781 2764.6875 C 1050.800781 2764.6875 1058 2818.21875 1147.628906 2819.535156 C 1237.269531 2820.855469 1264.171875 2768.058594 1264.171875 2768.058594 L 1234.109375 1679.128906 C 1234.109375 1679.128906 1275.039062 1611.140625 1260.441406 1544.5 C 1245.851562 1477.871094 1224.761719 1457.078125 1224.761719 1457.078125 C 1224.761719 1457.078125 1221.890625 1394.75 1207.140625 1375.859375 C 1192.398438 1356.96875 1180.691406 1355.101562 1180.691406 1355.101562 L 1185.570312 1147.558594 L 2364.089844 973.171875 C 2364.089844 973.171875 2386.289062 943.800781 2373.460938 920.019531 C 2360.628906 896.238281 2331.429688 899.371094 2331.429688 899.371094 C 2331.429688 899.371094 1158.800781 1081.5 1137.910156 1088.960938 C 1117.019531 1096.410156 1116.78125 1134.398438 1116.78125 1134.398438 "/>
<path fill-rule="evenodd" fill="rgb(48.631287%, 76.951599%, 3.140259%)" fill-opacity="1" d="M 1065.929688 1453.320312 C 1065.929688 1453.320312 1023.441406 1506.21875 1031.660156 1566.570312 C 1039.871094 1626.910156 1056.691406 1663.808594 1056.691406 1663.808594 L 1056.609375 1680.269531 C 1060.398438 1681.308594 1064.230469 1682.289062 1068.058594 1683.21875 C 1122.710938 1696.480469 1234.109375 1679.128906 1234.109375 1679.128906 C 1234.109375 1679.128906 1275.039062 1611.140625 1260.441406 1544.5 C 1245.851562 1477.871094 1224.761719 1457.078125 1224.761719 1457.078125 C 1224.761719 1457.078125 1224.640625 1454.558594 1224.339844 1450.378906 C 1211.371094 1451.339844 1194.640625 1452.421875 1173.609375 1453.550781 C 1110.308594 1456.910156 1065.929688 1453.320312 1065.929688 1453.320312 "/>
</svg>
